<mxfile host="app.diagrams.net" modified="2024-04-09T02:12:17.943Z" agent="Mozilla/5.0 (Windows NT 10.0; Win64; x64) AppleWebKit/537.36 (KHTML, like Gecko) Chrome/123.0.0.0 Safari/537.36" etag="Mh-ANlidgj8DFxWZvmDD" version="24.2.3" type="device">
  <diagram name="ページ1" id="lyIpGQ7f0zuRRISCBO_O">
    <mxGraphModel dx="2261" dy="738" grid="1" gridSize="10" guides="1" tooltips="1" connect="1" arrows="1" fold="1" page="1" pageScale="1" pageWidth="827" pageHeight="1169" math="0" shadow="0">
      <root>
        <mxCell id="0" />
        <mxCell id="1" parent="0" />
        <mxCell id="G9mQKHc5tCcmL-d1VJFn-1" value="教師付け&lt;br&gt;作業中" style="strokeWidth=2;html=1;shape=mxgraph.flowchart.terminator;whiteSpace=wrap;fillColor=#ffe6cc;strokeColor=#d79b00;" vertex="1" parent="1">
          <mxGeometry x="-40" y="280" width="100" height="60" as="geometry" />
        </mxCell>
        <mxCell id="G9mQKHc5tCcmL-d1VJFn-2" value="教師付け&lt;br&gt;未着手" style="strokeWidth=2;html=1;shape=mxgraph.flowchart.terminator;whiteSpace=wrap;fillColor=#ffe6cc;strokeColor=#d79b00;" vertex="1" parent="1">
          <mxGeometry x="-40" y="160" width="100" height="60" as="geometry" />
        </mxCell>
        <mxCell id="G9mQKHc5tCcmL-d1VJFn-3" value="受入&lt;br&gt;未着手" style="strokeWidth=2;html=1;shape=mxgraph.flowchart.terminator;whiteSpace=wrap;fillColor=#f8cecc;strokeColor=#b85450;" vertex="1" parent="1">
          <mxGeometry x="-40" y="400" width="100" height="60" as="geometry" />
        </mxCell>
        <mxCell id="G9mQKHc5tCcmL-d1VJFn-4" value="受入&lt;br&gt;作業中" style="strokeWidth=2;html=1;shape=mxgraph.flowchart.terminator;whiteSpace=wrap;fillColor=#f8cecc;strokeColor=#b85450;" vertex="1" parent="1">
          <mxGeometry x="-40" y="520" width="100" height="60" as="geometry" />
        </mxCell>
        <mxCell id="G9mQKHc5tCcmL-d1VJFn-5" value="受入&lt;br&gt;完了" style="strokeWidth=2;html=1;shape=mxgraph.flowchart.terminator;whiteSpace=wrap;fillColor=#f8cecc;strokeColor=#b85450;" vertex="1" parent="1">
          <mxGeometry x="-40" y="640" width="100" height="60" as="geometry" />
        </mxCell>
        <mxCell id="G9mQKHc5tCcmL-d1VJFn-6" value="作業開始" style="html=1;verticalAlign=bottom;endArrow=block;exitX=0.5;exitY=1;exitDx=0;exitDy=0;exitPerimeter=0;entryX=0.5;entryY=0;entryDx=0;entryDy=0;entryPerimeter=0;" edge="1" parent="1" source="G9mQKHc5tCcmL-d1VJFn-2" target="G9mQKHc5tCcmL-d1VJFn-1">
          <mxGeometry x="0.3333" width="80" relative="1" as="geometry">
            <mxPoint x="-130" y="400" as="sourcePoint" />
            <mxPoint x="-50" y="400" as="targetPoint" />
            <mxPoint as="offset" />
          </mxGeometry>
        </mxCell>
        <mxCell id="G9mQKHc5tCcmL-d1VJFn-7" value="提出" style="html=1;verticalAlign=bottom;endArrow=block;exitX=0.5;exitY=1;exitDx=0;exitDy=0;exitPerimeter=0;entryX=0.5;entryY=0;entryDx=0;entryDy=0;entryPerimeter=0;" edge="1" parent="1">
          <mxGeometry x="0.3333" width="80" relative="1" as="geometry">
            <mxPoint x="9.759999999999991" y="340" as="sourcePoint" />
            <mxPoint x="9.759999999999991" y="400" as="targetPoint" />
            <mxPoint as="offset" />
          </mxGeometry>
        </mxCell>
        <mxCell id="G9mQKHc5tCcmL-d1VJFn-8" value="作業開始" style="html=1;verticalAlign=bottom;endArrow=block;exitX=0.5;exitY=1;exitDx=0;exitDy=0;exitPerimeter=0;entryX=0.5;entryY=0;entryDx=0;entryDy=0;entryPerimeter=0;" edge="1" parent="1">
          <mxGeometry x="0.3333" width="80" relative="1" as="geometry">
            <mxPoint x="9.759999999999991" y="460" as="sourcePoint" />
            <mxPoint x="9.759999999999991" y="520" as="targetPoint" />
            <mxPoint as="offset" />
          </mxGeometry>
        </mxCell>
        <mxCell id="G9mQKHc5tCcmL-d1VJFn-9" value="差し戻し" style="html=1;verticalAlign=bottom;endArrow=block;exitX=0;exitY=0.5;exitDx=0;exitDy=0;exitPerimeter=0;entryX=0;entryY=0.5;entryDx=0;entryDy=0;entryPerimeter=0;" edge="1" parent="1" source="G9mQKHc5tCcmL-d1VJFn-4" target="G9mQKHc5tCcmL-d1VJFn-2">
          <mxGeometry x="-0.8462" y="10" width="80" relative="1" as="geometry">
            <mxPoint x="-90.00000000000001" y="580" as="sourcePoint" />
            <mxPoint x="-90.00000000000001" y="640" as="targetPoint" />
            <Array as="points">
              <mxPoint x="-120" y="550" />
              <mxPoint x="-120" y="190" />
            </Array>
            <mxPoint as="offset" />
          </mxGeometry>
        </mxCell>
        <mxCell id="G9mQKHc5tCcmL-d1VJFn-10" value="合格" style="html=1;verticalAlign=bottom;endArrow=block;exitX=0.5;exitY=1;exitDx=0;exitDy=0;exitPerimeter=0;entryX=0.5;entryY=0;entryDx=0;entryDy=0;entryPerimeter=0;" edge="1" parent="1">
          <mxGeometry x="0.3333" width="80" relative="1" as="geometry">
            <mxPoint x="9.579999999999927" y="580" as="sourcePoint" />
            <mxPoint x="9.579999999999927" y="640" as="targetPoint" />
            <mxPoint as="offset" />
          </mxGeometry>
        </mxCell>
        <mxCell id="G9mQKHc5tCcmL-d1VJFn-11" value="start" style="strokeWidth=2;html=1;shape=mxgraph.flowchart.start_2;whiteSpace=wrap;" vertex="1" parent="1">
          <mxGeometry x="-10" y="60" width="40" height="40" as="geometry" />
        </mxCell>
        <mxCell id="G9mQKHc5tCcmL-d1VJFn-12" value="タスク作成" style="html=1;verticalAlign=bottom;endArrow=block;exitX=0.5;exitY=1;exitDx=0;exitDy=0;exitPerimeter=0;entryX=0.5;entryY=0;entryDx=0;entryDy=0;entryPerimeter=0;" edge="1" parent="1">
          <mxGeometry x="0.3333" width="80" relative="1" as="geometry">
            <mxPoint x="9.759999999999991" y="100" as="sourcePoint" />
            <mxPoint x="9.759999999999991" y="160" as="targetPoint" />
            <mxPoint as="offset" />
          </mxGeometry>
        </mxCell>
        <mxCell id="G9mQKHc5tCcmL-d1VJFn-13" value="&lt;div style=&quot;&quot;&gt;&lt;span&gt;【作業内容】&lt;/span&gt;&lt;/div&gt;&lt;div style=&quot;&quot;&gt;&lt;span&gt;アノテーションの付与&lt;/span&gt;&lt;/div&gt;" style="shape=callout;whiteSpace=wrap;html=1;perimeter=calloutPerimeter;position2=0.52;rotation=0;size=17;position=0.35;base=18;align=left;flipH=0;flipV=0;direction=south;labelPosition=center;verticalLabelPosition=middle;verticalAlign=top;" vertex="1" parent="1">
          <mxGeometry x="60" y="280" width="220" height="80" as="geometry" />
        </mxCell>
        <mxCell id="G9mQKHc5tCcmL-d1VJFn-14" value="&lt;span style=&quot;text-align: justify&quot;&gt;【作業内容】&lt;br&gt;アノテーションの間違いを指摘&lt;/span&gt;&lt;br&gt;&lt;span style=&quot;text-align: justify&quot;&gt;アノテーションの間違いを修正&lt;/span&gt;" style="shape=callout;whiteSpace=wrap;html=1;perimeter=calloutPerimeter;position2=0.52;rotation=0;size=17;position=0.35;base=18;align=left;flipH=0;flipV=0;direction=south;labelPosition=center;verticalLabelPosition=middle;verticalAlign=top;" vertex="1" parent="1">
          <mxGeometry x="65" y="520" width="220" height="80" as="geometry" />
        </mxCell>
        <mxCell id="G9mQKHc5tCcmL-d1VJFn-15" value="{フェーズ}&lt;br&gt;{状態}" style="strokeWidth=2;html=1;shape=mxgraph.flowchart.terminator;whiteSpace=wrap;" vertex="1" parent="1">
          <mxGeometry x="-250" y="40" width="100" height="60" as="geometry" />
        </mxCell>
        <mxCell id="G9mQKHc5tCcmL-d1VJFn-16" value="教師付け&lt;br&gt;作業中" style="strokeWidth=2;html=1;shape=mxgraph.flowchart.terminator;whiteSpace=wrap;fillColor=#ffe6cc;strokeColor=#d79b00;" vertex="1" parent="1">
          <mxGeometry x="480" y="280" width="100" height="60" as="geometry" />
        </mxCell>
        <mxCell id="G9mQKHc5tCcmL-d1VJFn-17" value="教師付け&lt;br&gt;未着手" style="strokeWidth=2;html=1;shape=mxgraph.flowchart.terminator;whiteSpace=wrap;fillColor=#ffe6cc;strokeColor=#d79b00;" vertex="1" parent="1">
          <mxGeometry x="480" y="160" width="100" height="60" as="geometry" />
        </mxCell>
        <mxCell id="G9mQKHc5tCcmL-d1VJFn-18" value="受入&lt;br&gt;未着手" style="strokeWidth=2;html=1;shape=mxgraph.flowchart.terminator;whiteSpace=wrap;fillColor=#f8cecc;strokeColor=#b85450;" vertex="1" parent="1">
          <mxGeometry x="480" y="640" width="100" height="60" as="geometry" />
        </mxCell>
        <mxCell id="G9mQKHc5tCcmL-d1VJFn-19" value="受入&lt;br&gt;作業中" style="strokeWidth=2;html=1;shape=mxgraph.flowchart.terminator;whiteSpace=wrap;fillColor=#f8cecc;strokeColor=#b85450;" vertex="1" parent="1">
          <mxGeometry x="480" y="760" width="100" height="60" as="geometry" />
        </mxCell>
        <mxCell id="G9mQKHc5tCcmL-d1VJFn-20" value="受入&lt;br&gt;完了" style="strokeWidth=2;html=1;shape=mxgraph.flowchart.terminator;whiteSpace=wrap;fillColor=#f8cecc;strokeColor=#b85450;" vertex="1" parent="1">
          <mxGeometry x="480" y="880" width="100" height="60" as="geometry" />
        </mxCell>
        <mxCell id="G9mQKHc5tCcmL-d1VJFn-21" value="作業開始" style="html=1;verticalAlign=bottom;endArrow=block;exitX=0.5;exitY=1;exitDx=0;exitDy=0;exitPerimeter=0;entryX=0.5;entryY=0;entryDx=0;entryDy=0;entryPerimeter=0;" edge="1" parent="1" source="G9mQKHc5tCcmL-d1VJFn-17" target="G9mQKHc5tCcmL-d1VJFn-16">
          <mxGeometry x="0.3333" width="80" relative="1" as="geometry">
            <mxPoint x="390" y="400" as="sourcePoint" />
            <mxPoint x="470" y="400" as="targetPoint" />
            <mxPoint as="offset" />
          </mxGeometry>
        </mxCell>
        <mxCell id="G9mQKHc5tCcmL-d1VJFn-22" value="提出" style="html=1;verticalAlign=bottom;endArrow=block;exitX=0.5;exitY=1;exitDx=0;exitDy=0;exitPerimeter=0;entryX=0.5;entryY=0;entryDx=0;entryDy=0;entryPerimeter=0;" edge="1" parent="1">
          <mxGeometry x="0.3333" width="80" relative="1" as="geometry">
            <mxPoint x="529.7600000000002" y="340" as="sourcePoint" />
            <mxPoint x="529.7600000000002" y="400" as="targetPoint" />
            <mxPoint as="offset" />
          </mxGeometry>
        </mxCell>
        <mxCell id="G9mQKHc5tCcmL-d1VJFn-23" value="作業開始" style="html=1;verticalAlign=bottom;endArrow=block;exitX=0.5;exitY=1;exitDx=0;exitDy=0;exitPerimeter=0;entryX=0.5;entryY=0;entryDx=0;entryDy=0;entryPerimeter=0;" edge="1" parent="1">
          <mxGeometry x="0.3333" width="80" relative="1" as="geometry">
            <mxPoint x="529.7600000000002" y="700" as="sourcePoint" />
            <mxPoint x="529.7600000000002" y="760" as="targetPoint" />
            <mxPoint as="offset" />
          </mxGeometry>
        </mxCell>
        <mxCell id="G9mQKHc5tCcmL-d1VJFn-24" value="差し戻し" style="html=1;verticalAlign=bottom;endArrow=block;exitX=0;exitY=0.5;exitDx=0;exitDy=0;exitPerimeter=0;entryX=0;entryY=0.5;entryDx=0;entryDy=0;entryPerimeter=0;" edge="1" parent="1" source="G9mQKHc5tCcmL-d1VJFn-19" target="G9mQKHc5tCcmL-d1VJFn-17">
          <mxGeometry x="-0.8462" y="10" width="80" relative="1" as="geometry">
            <mxPoint x="430" y="580" as="sourcePoint" />
            <mxPoint x="430" y="640" as="targetPoint" />
            <Array as="points">
              <mxPoint x="400" y="790" />
              <mxPoint x="400" y="190" />
            </Array>
            <mxPoint as="offset" />
          </mxGeometry>
        </mxCell>
        <mxCell id="G9mQKHc5tCcmL-d1VJFn-25" value="合格" style="html=1;verticalAlign=bottom;endArrow=block;exitX=0.5;exitY=1;exitDx=0;exitDy=0;exitPerimeter=0;entryX=0.5;entryY=0;entryDx=0;entryDy=0;entryPerimeter=0;" edge="1" parent="1">
          <mxGeometry x="0.3333" width="80" relative="1" as="geometry">
            <mxPoint x="529.5799999999999" y="820" as="sourcePoint" />
            <mxPoint x="529.5799999999999" y="880" as="targetPoint" />
            <mxPoint as="offset" />
          </mxGeometry>
        </mxCell>
        <mxCell id="G9mQKHc5tCcmL-d1VJFn-26" value="start" style="strokeWidth=2;html=1;shape=mxgraph.flowchart.start_2;whiteSpace=wrap;" vertex="1" parent="1">
          <mxGeometry x="510" y="60" width="40" height="40" as="geometry" />
        </mxCell>
        <mxCell id="G9mQKHc5tCcmL-d1VJFn-27" value="タスク作成" style="html=1;verticalAlign=bottom;endArrow=block;exitX=0.5;exitY=1;exitDx=0;exitDy=0;exitPerimeter=0;entryX=0.5;entryY=0;entryDx=0;entryDy=0;entryPerimeter=0;" edge="1" parent="1">
          <mxGeometry x="0.3333" width="80" relative="1" as="geometry">
            <mxPoint x="529.7600000000002" y="100" as="sourcePoint" />
            <mxPoint x="529.7600000000002" y="160" as="targetPoint" />
            <mxPoint as="offset" />
          </mxGeometry>
        </mxCell>
        <mxCell id="G9mQKHc5tCcmL-d1VJFn-28" value="&lt;div style=&quot;&quot;&gt;&lt;span&gt;【作業内容】&lt;/span&gt;&lt;/div&gt;&lt;div style=&quot;&quot;&gt;&lt;span&gt;アノテーションの付与&lt;/span&gt;&lt;/div&gt;" style="shape=callout;whiteSpace=wrap;html=1;perimeter=calloutPerimeter;position2=0.52;rotation=0;size=17;position=0.35;base=18;align=left;flipH=0;flipV=0;direction=south;labelPosition=center;verticalLabelPosition=middle;verticalAlign=top;" vertex="1" parent="1">
          <mxGeometry x="580" y="280" width="220" height="80" as="geometry" />
        </mxCell>
        <mxCell id="G9mQKHc5tCcmL-d1VJFn-29" value="&lt;span style=&quot;text-align: justify&quot;&gt;【作業内容】&lt;br&gt;アノテーションの間違いを指摘&lt;/span&gt;&lt;br&gt;" style="shape=callout;whiteSpace=wrap;html=1;perimeter=calloutPerimeter;position2=0.52;rotation=0;size=17;position=0.35;base=18;align=left;flipH=0;flipV=0;direction=south;labelPosition=center;verticalLabelPosition=middle;verticalAlign=top;" vertex="1" parent="1">
          <mxGeometry x="585" y="520" width="220" height="80" as="geometry" />
        </mxCell>
        <mxCell id="G9mQKHc5tCcmL-d1VJFn-30" value="検査&lt;br&gt;未着手" style="strokeWidth=2;html=1;shape=mxgraph.flowchart.terminator;whiteSpace=wrap;fillColor=#dae8fc;strokeColor=#6c8ebf;" vertex="1" parent="1">
          <mxGeometry x="480" y="400" width="100" height="60" as="geometry" />
        </mxCell>
        <mxCell id="G9mQKHc5tCcmL-d1VJFn-31" value="検査&lt;br&gt;作業中" style="strokeWidth=2;html=1;shape=mxgraph.flowchart.terminator;whiteSpace=wrap;fillColor=#dae8fc;strokeColor=#6c8ebf;" vertex="1" parent="1">
          <mxGeometry x="480" y="520" width="100" height="60" as="geometry" />
        </mxCell>
        <mxCell id="G9mQKHc5tCcmL-d1VJFn-32" value="作業開始" style="html=1;verticalAlign=bottom;endArrow=block;exitX=0.5;exitY=1;exitDx=0;exitDy=0;exitPerimeter=0;entryX=0.5;entryY=0;entryDx=0;entryDy=0;entryPerimeter=0;" edge="1" parent="1">
          <mxGeometry x="0.3333" width="80" relative="1" as="geometry">
            <mxPoint x="529.5" y="460" as="sourcePoint" />
            <mxPoint x="529.5" y="520" as="targetPoint" />
            <mxPoint as="offset" />
          </mxGeometry>
        </mxCell>
        <mxCell id="G9mQKHc5tCcmL-d1VJFn-33" value="合格" style="html=1;verticalAlign=bottom;endArrow=block;exitX=0.5;exitY=1;exitDx=0;exitDy=0;exitPerimeter=0;entryX=0.5;entryY=0;entryDx=0;entryDy=0;entryPerimeter=0;" edge="1" parent="1">
          <mxGeometry x="0.3333" width="80" relative="1" as="geometry">
            <mxPoint x="529.5" y="580" as="sourcePoint" />
            <mxPoint x="529.5" y="640" as="targetPoint" />
            <mxPoint as="offset" />
          </mxGeometry>
        </mxCell>
        <mxCell id="G9mQKHc5tCcmL-d1VJFn-34" value="差し戻し" style="html=1;verticalAlign=bottom;endArrow=block;" edge="1" parent="1">
          <mxGeometry x="-0.8462" y="10" width="80" relative="1" as="geometry">
            <mxPoint x="480" y="550" as="sourcePoint" />
            <mxPoint x="480" y="190" as="targetPoint" />
            <Array as="points">
              <mxPoint x="420" y="550" />
              <mxPoint x="420" y="190" />
            </Array>
            <mxPoint as="offset" />
          </mxGeometry>
        </mxCell>
        <mxCell id="G9mQKHc5tCcmL-d1VJFn-35" value="&lt;span style=&quot;text-align: justify&quot;&gt;【作業内容】&lt;br&gt;アノテーションの間違いを指摘&lt;/span&gt;&lt;br&gt;&lt;span style=&quot;text-align: justify&quot;&gt;アノテーションの間違いを修正&lt;/span&gt;" style="shape=callout;whiteSpace=wrap;html=1;perimeter=calloutPerimeter;position2=0.52;rotation=0;size=17;position=0.35;base=18;align=left;flipH=0;flipV=0;direction=south;labelPosition=center;verticalLabelPosition=middle;verticalAlign=top;" vertex="1" parent="1">
          <mxGeometry x="600" y="880" width="220" height="80" as="geometry" />
        </mxCell>
      </root>
    </mxGraphModel>
  </diagram>
</mxfile>
